<svg width="12" height="30" viewBox="0 0 12 30" fill="none" xmlns="http://www.w3.org/2000/svg">
<path d="M9.24405 8.59519L8.63407 1.10906H8.68952C9.02224 1.10906 9.24405 0.887246 9.24405 0.554529C9.24405 0.221811 9.02224 0 8.68952 0H3.36605C3.03333 0 2.81152 0.221811 2.81152 0.554529C2.81152 0.887246 3.03333 1.10906 3.36605 1.10906H3.4215L2.81152 8.59519L0.205233 13.3087C0.14978 13.3641 0.14978 13.475 0.14978 13.586V27.061C0.14978 28.8909 1.25884 30 3.14423 30H8.85588C10.7413 30 11.8503 28.8909 11.8503 27.061V13.5305C11.8503 13.4196 11.8503 13.3641 11.7949 13.2532L9.24405 8.59519ZM4.53056 1.10906H7.46956L7.69137 3.8817H4.30875L4.53056 1.10906ZM10.7413 27.0055C10.7413 28.2255 10.1313 28.8355 8.85588 28.8355H3.19969C1.92427 28.8355 1.31429 28.2255 1.31429 27.0055V19.4085H2.70061C3.08878 21.2384 4.86327 22.4584 6.69322 22.0702C8.02409 21.793 9.07769 20.7394 9.35495 19.4085H10.7413V27.0055ZM3.75422 18.854C3.75422 17.5786 4.80782 16.5804 6.08324 16.5804C7.35865 16.5804 8.3568 17.634 8.3568 18.9094C8.3568 20.1848 7.3032 21.183 6.08324 21.183C4.75237 21.183 3.75422 20.1294 3.75422 18.854ZM10.7413 18.2994H9.35495C8.96679 16.4695 7.19229 15.2495 5.36235 15.6377C4.03148 15.915 2.97788 16.9686 2.70061 18.2994H1.31429V13.6969L3.86512 9.03882C3.92058 8.98336 3.92057 8.87246 3.92057 8.81701L4.25329 5.04621H7.80228L8.07954 8.81701C8.07954 8.87246 8.13499 8.98336 8.13499 9.03882L10.7413 13.6969V18.2994Z" fill="#280140"/>
</svg>
