<svg width="22" height="20" viewBox="0 0 22 20" fill="none" xmlns="http://www.w3.org/2000/svg">
<path d="M11 18.6C11 18.6 1 13 1 6.20001C1.0002 4.99814 1.41665 3.83344 2.17855 2.90392C2.94044 1.97441 4.00074 1.33745 5.17919 1.10135C6.35764 0.865247 7.58148 1.04457 8.64265 1.60884C9.70383 2.17311 10.5368 3.08748 11 4.19651L11 4.19652C11.4632 3.08749 12.2962 2.17311 13.3573 1.60884C14.4185 1.04458 15.6424 0.865248 16.8208 1.10135C17.9993 1.33745 19.0596 1.97441 19.8215 2.90392C20.5833 3.83344 20.9998 4.99814 21 6.20001C21 13 11 18.6 11 18.6Z" stroke="#999999" stroke-linecap="round" stroke-linejoin="round"/>
</svg>
